/* XPM */
/* $Id: check-mon-no.xpm 135 2008-12-19 00:49:58Z omcf $ */
static char * check_mon_no_xpm[] = {
/* width height ncolors chars_per_pixel */
"50 50 257 2",
"  	c None",
". 	c #070000",
"+ 	c #030000",
"@ 	c #130101",
"# 	c #2A0303",
"$ 	c #ED1313",
"% 	c #7B0A0A",
"& 	c #520707",
"* 	c #EC1515",
"= 	c #D71313",
"- 	c #B61111",
"; 	c #9D1717",
"> 	c #EE2525",
", 	c #F14444",
"' 	c #F57676",
") 	c #F8A7A7",
"! 	c #FBCCCC",
"~ 	c #FDE9E9",
"{ 	c #FEF4F4",
"] 	c #FFF9F9",
"^ 	c #FFFDFD",
"/ 	c #FFFFFF",
"( 	c #F0F0F0",
"_ 	c #E7E7E7",
": 	c #D3D3D3",
"< 	c #B8B8B8",
"[ 	c #484848",
"} 	c #313131",
"| 	c #111111",
"1 	c #090909",
"2 	c #030303",
"3 	c #000000",
"4 	c #FFFFFF",
"5 	c #000000",
"6 	c #000000",
"7 	c #000000",
"8 	c #000000",
"9 	c #000000",
"0 	c #000000",
"a 	c #000000",
"b 	c #000000",
"c 	c #000000",
"d 	c #000000",
"e 	c #000000",
"f 	c #000000",
"g 	c #000000",
"h 	c #000000",
"i 	c #000000",
"j 	c #000000",
"k 	c #000000",
"l 	c #000000",
"m 	c #000000",
"n 	c #000000",
"o 	c #000000",
"p 	c #000000",
"q 	c #000000",
"r 	c #000000",
"s 	c #000000",
"t 	c #000000",
"u 	c #000000",
"v 	c #000000",
"w 	c #000000",
"x 	c #000000",
"y 	c #000000",
"z 	c #000000",
"A 	c #000000",
"B 	c #000000",
"C 	c #000000",
"D 	c #000000",
"E 	c #000000",
"F 	c #000000",
"G 	c #000000",
"H 	c #000000",
"I 	c #000000",
"J 	c #000000",
"K 	c #000000",
"L 	c #000000",
"M 	c #000000",
"N 	c #000000",
"O 	c #000000",
"P 	c #000000",
"Q 	c #000000",
"R 	c #000000",
"S 	c #000000",
"T 	c #000000",
"U 	c #000000",
"V 	c #000000",
"W 	c #000000",
"X 	c #000000",
"Y 	c #000000",
"Z 	c #000000",
"` 	c #000000",
" .	c #000000",
"..	c #000000",
"+.	c #000000",
"@.	c #000000",
"#.	c #000000",
"$.	c #000000",
"%.	c #000000",
"&.	c #000000",
"*.	c #000000",
"=.	c #000000",
"-.	c #000000",
";.	c #000000",
">.	c #000000",
",.	c #000000",
"'.	c #000000",
").	c #000000",
"!.	c #000000",
"~.	c #000000",
"{.	c #000000",
"].	c #000000",
"^.	c #000000",
"/.	c #000000",
"(.	c #000000",
"_.	c #000000",
":.	c #000000",
"<.	c #000000",
"[.	c #000000",
"}.	c #000000",
"|.	c #000000",
"1.	c #000000",
"2.	c #000000",
"3.	c #000000",
"4.	c #000000",
"5.	c #000000",
"6.	c #000000",
"7.	c #000000",
"8.	c #000000",
"9.	c #000000",
"0.	c #000000",
"a.	c #000000",
"b.	c #000000",
"c.	c #000000",
"d.	c #000000",
"e.	c #000000",
"f.	c #000000",
"g.	c #000000",
"h.	c #000000",
"i.	c #000000",
"j.	c #000000",
"k.	c #000000",
"l.	c #000000",
"m.	c #000000",
"n.	c #000000",
"o.	c #000000",
"p.	c #000000",
"q.	c #000000",
"r.	c #000000",
"s.	c #000000",
"t.	c #000000",
"u.	c #000000",
"v.	c #000000",
"w.	c #000000",
"x.	c #000000",
"y.	c #000000",
"z.	c #000000",
"A.	c #000000",
"B.	c #000000",
"C.	c #000000",
"D.	c #000000",
"E.	c #000000",
"F.	c #000000",
"G.	c #000000",
"H.	c #000000",
"I.	c #000000",
"J.	c #000000",
"K.	c #000000",
"L.	c #000000",
"M.	c #000000",
"N.	c #000000",
"O.	c #000000",
"P.	c #000000",
"Q.	c #000000",
"R.	c #000000",
"S.	c #000000",
"T.	c #000000",
"U.	c #000000",
"V.	c #000000",
"W.	c #000000",
"X.	c #000000",
"Y.	c #000000",
"Z.	c #000000",
"`.	c #000000",
" +	c #000000",
".+	c #000000",
"++	c #000000",
"@+	c #000000",
"#+	c #000000",
"$+	c #000000",
"%+	c #000000",
"&+	c #000000",
"*+	c #000000",
"=+	c #000000",
"-+	c #000000",
";+	c #000000",
">+	c #000000",
",+	c #000000",
"'+	c #000000",
")+	c #000000",
"!+	c #000000",
"~+	c #000000",
"{+	c #000000",
"]+	c #000000",
"^+	c #000000",
"/+	c #000000",
"(+	c #000000",
"_+	c #000000",
":+	c #000000",
"<+	c #000000",
"[+	c #000000",
"}+	c #000000",
"|+	c #000000",
"1+	c #000000",
"2+	c #000000",
"3+	c #000000",
"4+	c #000000",
"5+	c #000000",
"6+	c #000000",
"7+	c #000000",
"8+	c #000000",
"9+	c #000000",
"0+	c #000000",
"a+	c #000000",
"b+	c #000000",
"c+	c #000000",
"d+	c #000000",
"e+	c #000000",
"f+	c #000000",
"g+	c #000000",
"h+	c #000000",
"i+	c #000000",
"j+	c #000000",
"k+	c #000000",
"l+	c #000000",
"m+	c #000000",
"n+	c #000000",
"o+	c #000000",
"p+	c #000000",
"q+	c #000000",
"r+	c #000000",
"s+	c #000000",
"t+	c #000000",
"u+	c #000000",
"v+	c #000000",
"w+	c #000000",
"x+	c #000000",
"y+	c #000000",
"z+	c #000000",
"A+	c #000000",
"B+	c #000000",
"C+	c #000000",
"D+	c #000000",
"E+	c #000000",
"F+	c #000000",
"G+	c #000000",
"H+	c #000000",
"                                                                                                    ",
"                                                                                                    ",
"                                                                                                    ",
"                                                                                                    ",
"                                                                                                    ",
"                                                                                                    ",
"                                                                                                    ",
"                                                                                                    ",
"                                                                                                    ",
"                                                                                                    ",
"                                                                                                    ",
"        3 3 3 3 3 3 3 3 3 3 3 3 3 3 3 3 3 3 3 3 3 3 3 3 3 3 3 3 3 3 3 3 3 3 3 3 3 3 3 3 3 3         ",
"      3 3 } } } } } } } } } } } } } } } } } } } } } } } } } } } } } } } } } } } } } } } } 3 3       ",
"      3 3 < ^ ^ ^ ^ ^ ^ ^ ^ ^ ^ ^ ^ ^ ^ ^ ~ ) ' ' ' ' ) ~ ^ ^ ^ ^ ^ ^ ^ ^ ^ ^ ^ ^ ^ ^ ^ : 3 3       ",
"      3 3 < / / / / / / / / / / / / / / ) , > $ $ $ $ > , ) ] / / / / / / / / / / / / / : 3 3       ",
"      3 3 < / / / / / / / / / / / ^ ! , * * * $ $ $ $ $ $ * > ! / / / / / / / / / / / / : 3 3       ",
"      3 3 < / / / / ( [ [ [ [ [ [ ; * $ $ $ * = = - = * $ $ * $ ; [ [ [ [ [ [ _ / / / / : 3 3       ",
"      3 3 < / / / / ( | 1 1 1 1 & > $ $ = % @ 2 1 1 2 # % = $ * * % 1 1 1 1 2 : / / / / : 3 3       ",
"      3 3 < / / / / _ 1 3 3 + # * $ $ $ ; 3 3 3 3 3 3 3 3 @ - $ * * & 3 3 3 3 : / / / / : 3 3       ",
"      3 3 < / / / / _ 1 3 3 3 = $ $ $ $ $ ; + 3 3 3 3 3 3 3 3 - $ $ = . 3 3 3 : / / / / : 3 3       ",
"      3 3 < / / / / _ 1 3 3 & * $ = = $ $ $ ; + 3 3 3 3 3 3 3 @ = $ $ % 3 3 3 : ^ / / / : 3 3       ",
"      3 3 < / / / / _ 1 3 @ - $ $ & # = $ $ $ ; . 3 3 3 3 3 3 3 & $ $ - # 3 3 : / / / / : 3 3       ",
"      3 3 < / / / / _ 1 3 & = $ = @ 3 # = $ $ $ ; + 3 3 3 3 3 + @ $ $ $ & 3 3 : / / / / : 3 3       ",
"      3 3 < / / / / _ 1 3 % $ $ - 3 3 3 # = $ $ $ ; + 3 3 3 3 3 3 - $ $ % + 3 : / / / / : 3 3       ",
"      3 3 < / / / / _ 1 3 ; $ $ % 3 3 3 3 # = $ $ $ ; . 3 3 3 3 3 ; $ $ ; + 3 : ^ / / / : 3 3       ",
"      3 3 < / / / / _ 1 3 ; $ $ % + 3 3 3 3 # = $ $ $ - + 3 3 3 3 % $ $ ; 3 3 : / / / / : 3 3       ",
"      3 3 < / / / / _ 1 3 % $ $ ; 3 3 3 3 3 3 # = $ $ $ ; + 3 3 3 - $ $ % 3 3 : / / / / : 3 3       ",
"      3 3 < / / / / _ 1 3 & $ $ = . 3 3 3 3 3 3 # = $ $ $ ; + 3 . = $ $ % + 3 : / / / / : 3 3       ",
"      3 3 < / / / / _ 1 3 @ - $ $ & 3 3 3 3 3 3 3 # = $ $ $ ; 3 & $ $ - # 3 3 : ^ / / / : 3 3       ",
"      3 3 < / / / / _ 1 3 3 & $ $ - 3 3 3 3 3 3 3 + # = $ $ $ ; - $ $ % 3 3 3 : / / / / : 3 3       ",
"      3 3 < / / / / _ 1 3 3 . = $ $ % 3 3 3 3 3 3 3 3 # = $ $ $ $ $ = @ 3 3 3 : / / / / : 3 3       ",
"      3 3 < / / / / _ 1 3 3 3 & $ $ $ % 3 3 3 3 3 3 3 3 # = $ $ $ $ & 3 3 3 3 : / / / / : 3 3       ",
"      3 3 < / / / / _ 1 3 3 3 3 % $ $ $ - # . 3 3 3 3 + # - $ $ $ % . 3 3 3 3 : ^ / / / : 3 3       ",
"      3 3 < / / / / ( [ [ [ [ [ [ ; * $ $ $ = ; ; ; ; = * $ $ $ ; [ [ [ [ [ [ : / / / / : 3 3       ",
"      3 3 < / / / / / ^ ] ^ ] ] / / ) > $ $ * > * > * * $ $ > ) / ^ ] ^ ] ] ^ / / / / / : 3 3       ",
"      3 3 < / / / / / / / / / / / / / { ) , * $ $ $ $ $ , ' ~ / / / / / / / / / / / / / : 3 3       ",
"      3 3 < / / / / / / / / / / / / / / ] ! ) ' ' ' ' ) ! / / / / / / / / / / / / / / / : 3 3       ",
"      3 3 } [ [ } [ [ } [ } } } } } } } } } } } } } } } } } } } } } } } } [ [ } [ [ } [ } 3 3       ",
"        3 3 3 3 3 3 3 3 3 | } } } } } } } } } } } } } } } } } } } } } } | 3 3 3 3 3 2 3 3 3         ",
"                        3 [ / / / / / / / / / ^ ^ ^ ^ ^ / / / / / / / / [ 3                         ",
"                        3 [ ^ / / / / / / / / / / / / / / / / / / / / / [ 1                         ",
"                        3 } ( _ _ _ _ _ _ _ _ _ _ _ _ _ _ _ _ _ _ _ _ { [ 1                         ",
"                        3 2 1 1 1 1 1 1 1 1 1 1 1 1 1 1 1 1 1 1 1 1 1 1 1 3                         ",
"                          3 3 3 3 3 3 3 3 3 3 3 3 3 3 3 3 3 3 3 3 3 3 3 3 3                         ",
"                                                                                                    ",
"                                                                                                    ",
"                                                                                                    ",
"                                                                                                    ",
"                                                                                                    ",
"                                                                                                    "};
